# xmcd
#
# Track frame offsets: 
#        150
#        30550
#        57582
#        86790
#        114112
#        138012
#        164795
#        196157
#        231167
#        254809
#        280870
#        304850
#
# Disc length: 4617 seconds
#
# Revision: 3
# Processed by: cddbd v1.5.2PL0 Copyright (c) Steve Scherf et al.
# Submitted via: ExactAudioCopy v1.3
#
DISCID=a912070c
DTITLE=Joe SATRIANI Eric JOHNSON Steve VAI - G3-Live in Concert
DYEAR=1997
DGENRE=Blues
TTITLE0=Joe Satriani - Cool No 9
TTITLE1=Joe Satriani - Flying In A Blue Dream
TTITLE2=Joe Satriani - Summer Song
TTITLE3=Eric Johnson - Zap
TTITLE4=Eric Johnson - Manhattan
TTITLE5=Eric Johnson - Camel's Night Out
TTITLE6=Steve Vai - Answers
TTITLE7=Steve Vai - For The Love Of God
TTITLE8=Steve Vai - The Attitude Song
TTITLE9=Joe Satriani, Eric Johnson, Steve Vai - Going Down
TTITLE10=Joe Satriani, Eric Johnson, Steve Vai - My Guitar Wants To Ki
TTITLE10=ll Your Mama
TTITLE11=Joe Satriani, Eric Johnson, Steve Vai - Red House
EXTD=
EXTT0=
EXTT1=
EXTT2=
EXTT3=
EXTT4=
EXTT5=
EXTT6=
EXTT7=
EXTT8=
EXTT9=
EXTT10=
EXTT11=
PLAYORDER=
